<svg width="520" height="140" viewBox="0 0 520 140" fill="none" xmlns="http://www.w3.org/2000/svg">
  <defs>
    <linearGradient id="blue" x1="74" y1="15" x2="125" y2="119" gradientUnits="userSpaceOnUse">
      <stop stop-color="#4637FF"/>
      <stop offset="1" stop-color="#271DFF"/>
    </linearGradient>
    <linearGradient id="teal" x1="36" y1="34" x2="72" y2="125" gradientUnits="userSpaceOnUse">
      <stop stop-color="#12C9BD"/>
      <stop offset="1" stop-color="#05A99A"/>
    </linearGradient>
    <linearGradient id="coral" x1="12" y1="55" x2="45" y2="129" gradientUnits="userSpaceOnUse">
      <stop stop-color="#FF6044"/>
      <stop offset="1" stop-color="#FF7C62"/>
    </linearGradient>
    <filter id="softShadow" x="-10" y="-6" width="160" height="160" filterUnits="userSpaceOnUse" color-interpolation-filters="sRGB">
      <feDropShadow dx="0" dy="8" stdDeviation="6" flood-color="#050B22" flood-opacity="0.14"/>
    </filter>
  </defs>

  <g filter="url(#softShadow)">
    <path d="M14 58L36 73V124H14V58Z" fill="url(#coral)"/>
    <path d="M39 37L64 55V126L39 110V37Z" fill="url(#teal)"/>
    <path d="M62 20H96C116.5 20 131.5 35 131.5 55.5C131.5 76 116.5 91 96 91H84.5V126L62 110V20Z" fill="url(#blue)"/>
    <path d="M96 42C98.7 55.2 106.3 62.8 119.5 65.5C106.3 68.2 98.7 75.8 96 89C93.3 75.8 85.7 68.2 72.5 65.5C85.7 62.8 93.3 55.2 96 42Z" fill="white"/>
  </g>

  <g fill="#050B22">
    <path d="M165.8 34H208.9C233.7 34 249.8 48.4 249.8 70.1C249.8 91.8 233.7 106.2 208.9 106.2H187.5V128H165.8V34ZM207.5 87.6C220.2 87.6 227.5 81.2 227.5 70.1C227.5 58.9 220.2 52.6 207.5 52.6H187.5V87.6H207.5Z"/>
    <path d="M258.6 92.7C258.6 70.8 275.2 55.4 297.7 55.4C320.1 55.4 336.7 70.8 336.7 92.7C336.7 114.6 320.1 130 297.7 130C275.2 130 258.6 114.6 258.6 92.7ZM315.8 92.7C315.8 80.6 308.4 73.2 297.7 73.2C286.8 73.2 279.4 80.6 279.4 92.7C279.4 104.8 286.8 112.2 297.7 112.2C308.4 112.2 315.8 104.8 315.8 92.7Z"/>
    <path d="M342.6 119.3L349.5 104.3C356.1 108.7 366.1 111.7 375.3 111.7C385.2 111.7 388.9 109.1 388.9 104.9C388.9 92.7 344.2 105.2 344.2 75.7C344.2 62.7 356 55.4 375.8 55.4C385.1 55.4 395.5 57.5 402.5 61.2L395.6 76.1C388.3 72.1 381 70.8 375.8 70.8C366.1 70.8 362 73.9 362 77.8C362 90.5 406.7 78.2 406.7 107.3C406.7 120 394.8 130 374.5 130C362.9 130 351.2 126.8 342.6 119.3Z"/>
    <path d="M461.6 124.5C457.4 128 451.2 130 444.9 130C428.1 130 418.3 121.4 418.3 104.3V74H407.2V58H418.3V40.5H439.2V58H457.1V74H439.2V104C439.2 110.1 442.5 113.4 448.1 113.4C451.2 113.4 454.3 112.5 456.7 110.7L461.6 124.5Z"/>
    <path d="M541 98.5H486.4C488.4 107.5 496.1 112.9 507.1 112.9C514.7 112.9 520.2 110.6 525.2 105.9L536.4 118C529.6 125.8 519.4 130 506.6 130C481.6 130 465.4 114.2 465.4 92.7C465.4 71.1 481.9 55.4 503.9 55.4C525 55.4 541.4 69.7 541.4 93C541.4 94.6 541.1 96.9 541 98.5ZM486.1 86.2H521.7C520.2 77.1 513.3 71.2 504 71.2C494.5 71.2 487.6 77 486.1 86.2Z" transform="translate(-54 0)"/>
    <path d="M515.5 56.5H535.4V66C540.5 59 548.9 55.4 559.6 55.4V74.7C557.9 74.6 556.6 74.5 554.9 74.5C543.4 74.5 536.4 80.8 536.4 94.5V128H515.5V56.5Z"/>
  </g>

  <rect x="455" y="34" width="13" height="94" rx="1.5" fill="#352BFF"/>
  <path d="M485.7 154C477.9 154 469.9 151.5 465 147.3L472.6 132.5C476 135.5 480.6 137.2 485.1 137.2C491.3 137.2 494.8 134.4 497.9 127.5L498.5 126.1L467.6 56.5H489.2L509.1 104.6L529.1 56.5H549.5L517.2 132.4C510.3 148.9 501 154 485.7 154Z" fill="#352BFF"/>
</svg>
