<svg width="96" height="96" viewBox="0 0 96 96" fill="none" xmlns="http://www.w3.org/2000/svg">
  <defs>
    <linearGradient id="blue" x1="20" y1="8" x2="82" y2="88" gradientUnits="userSpaceOnUse">
      <stop stop-color="#4637FF"/>
      <stop offset="1" stop-color="#271DFF"/>
    </linearGradient>
    <filter id="shadow" x="0" y="4" width="96" height="92" filterUnits="userSpaceOnUse" color-interpolation-filters="sRGB">
      <feDropShadow dx="0" dy="8" stdDeviation="5" flood-color="#050B22" flood-opacity="0.14"/>
    </filter>
  </defs>
  <g filter="url(#shadow)">
    <path d="M24 8H59L82 31V72C82 82.5 74.5 90 64 90H30C19.5 90 12 82.5 12 72V26C12 15.5 19.5 8 30 8H24Z" fill="white"/>
    <path d="M30 11H58L79 32V71C79 79.6 72.6 86 64 86H31C22.4 86 16 79.6 16 71V27C16 17.9 21.9 11 30 11Z" stroke="url(#blue)" stroke-width="7" stroke-linejoin="round"/>
    <path d="M58 11V28C58 31.3 60.7 34 64 34H79" stroke="url(#blue)" stroke-width="7" stroke-linecap="round" stroke-linejoin="round"/>
    <path d="M46.5 36C48.7 45.8 54.2 51.3 64 53.5C54.2 55.7 48.7 61.2 46.5 71C44.3 61.2 38.8 55.7 29 53.5C38.8 51.3 44.3 45.8 46.5 36Z" fill="url(#blue)"/>
  </g>
</svg>
